# xmcd
#
# Track frame offsets: 
#        150
#        18345
#        35517
#        55647
#        71007
#        90187
#        105470
#        131155
#        150912
#        163942
#        181440
#        203157
#        219705
#        239230
#        251097
#        272575
#        295800
#        309855
#
# Disc length: 4384 seconds
#
# Revision: 5
# Processed by: cddbd v1.5.2PL0 Copyright (c) Steve Scherf et al.
# Submitted via: ExactAudioCopy v1.0b3
#
DISCID=fc111e12
DTITLE=Various Artist - Venerdì '70 volume 2 [cd2]
DYEAR=1900
DGENRE=Disco
TTITLE0=Van Mc Coy - The hustle
TTITLE1=Peter Brown - Crank it up
TTITLE2=Change - The glow of love
TTITLE3=C.J. and Co. - Devil's gun
TTITLE4=Tuxedo Junction - Chattanooga choo choo
TTITLE5=Mike Theodore Orchestra - The bull
TTITLE6=Candido - Jingo
TTITLE7=Gary Criss - Rio de Janeiro
TTITLE8=Karen Young - Hot shot
TTITLE9=Sparks - Beat the clock
TTITLE10=Giorgio Moroder - Knights in white satin
TTITLE11=Rockets - Future woman
TTITLE12=Boystown Gang - Can't take my eyes off you
TTITLE13=Orlando Riva Sound - Moon Boots
TTITLE14=Queen Samantha - Take a chance
TTITLE15=Macho - I'm a man
TTITLE16=Roberta Kelly - Trouble maker
TTITLE17=Anthony White - Block party
EXTD=
EXTT0=
EXTT1=
EXTT2=
EXTT3=
EXTT4=
EXTT5=
EXTT6=
EXTT7=
EXTT8=
EXTT9=
EXTT10=
EXTT11=
EXTT12=
EXTT13=
EXTT14=
EXTT15=
EXTT16=
EXTT17=
PLAYORDER=
